<svg xmlns="http://www.w3.org/2000/svg" viewBox="0 0 24 24" fill="#8b4589" width="24" height="24">
  <path d="M12 2L17.1213 7.12132C19.2929 9.29289 19.2929 12.7071 17.1213 14.8787C14.9497 17.0503 11.5355 17.0503 9.36396 14.8787C7.19239 12.7071 7.19239 9.29289 9.36396 7.12132L12 2Z" />
  <path d="M17.6931 11.0303C17.1191 11.6043 16.1616 11.6043 15.5876 11.0303C15.0136 10.4562 15.0136 9.49877 15.5876 8.9247L18.2452 6.2670L19.3509 7.37263L17.6931 11.0303Z" />
  <path d="M6.30688 11.0303C6.88094 11.6043 7.83841 11.6043 8.41246 11.0303C8.98651 10.4562 8.98651 9.49877 8.41246 8.9247L5.75485 6.2670L4.64912 7.37263L6.30688 11.0303Z" />
  <path d="M14.7981 2.86197C14.4399 2.50367 13.7967 2.83036 13.7967 3.3401V4.86197C13.7967 5.27618 14.1825 5.66197 14.5967 5.66197C15.0109 5.66197 15.3967 5.27618 15.3967 4.86197V3.34011C15.3967 2.83036 14.7535 2.50367 14.3953 2.86197C14.1867 3.07064 14.5897 2.66773 14.7981 2.86197Z" />
  <path d="M9.20187 2.86197C9.56017 2.50367 10.2033 2.83036 10.2033 3.3401V4.86197C10.2033 5.27618 9.81751 5.66197 9.40329 5.66197C8.98908 5.66197 8.60329 5.27618 8.60329 4.86197V3.34011C8.60329 2.83036 9.24648 2.50367 9.60478 2.86197C9.8133 3.07064 9.41038 2.66773 9.20187 2.86197Z" />
  <path d="M12 18C12 15.7909 13.7909 14 16 14H22V18C22 20.2091 20.2091 22 18 22H16C13.7909 22 12 20.2091 12 18Z" />
  <path d="M2 18C2 20.2091 3.79086 22 6 22H8C10.2091 22 12 20.2091 12 18V14H6C3.79086 14 2 15.7909 2 18Z" />
</svg>